<?xml version="1.0" encoding="UTF-8" standalone="no"?>
<svg xmlns:xlink="http://www.w3.org/1999/xlink" height="36.4px" width="36.4px" xmlns="http://www.w3.org/2000/svg">
  <g transform="matrix(1.0, 0.0, 0.0, 1.0, 18.2, 18.2)">
    <use height="36.4" transform="matrix(1.0, 0.0, 0.0, 1.0, -18.2, -18.2)" width="36.4" xlink:href="#shape0"/>
  </g>
  <defs>
    <g id="shape0" transform="matrix(1.0, 0.0, 0.0, 1.0, 18.2, 18.2)">
      <path d="M-18.2 -18.2 L18.2 -18.2 18.2 18.2 -18.2 18.2 -18.2 -18.2" fill="#ffffff" fill-opacity="0.0" fill-rule="evenodd" stroke="none"/>
      <path d="M-8.55 -16.95 L-8.25 -17.65 -7.55 -17.95 15.7 -17.95 16.4 -17.65 16.7 -16.95 16.7 17.0 16.4 17.7 15.7 18.0 -7.55 18.0 -8.25 17.7 -8.55 17.0 -8.55 9.65 -8.25 8.95 -7.55 8.65 Q-7.15 8.65 -6.85 8.95 -6.55 9.25 -6.55 9.65 L-6.55 16.0 14.7 16.0 14.7 -15.95 -6.55 -15.95 -6.55 -9.6 Q-6.55 -9.2 -6.85 -8.9 -7.15 -8.6 -7.55 -8.6 L-8.25 -8.9 -8.55 -9.6 -8.55 -16.95 M0.25 -1.1 L0.95 -0.8 1.25 -0.1 0.95 0.6 0.25 0.9 -12.95 0.9 -9.8 3.6 -9.45 4.3 Q-9.4 4.7 -9.7 5.0 L-10.35 5.35 -11.1 5.1 -16.2 0.7 -16.25 0.7 -16.35 0.6 -16.4 0.55 -16.65 0.0 -16.65 -0.1 -16.65 -0.15 -16.4 -0.75 -16.3 -0.85 -16.15 -0.95 -11.1 -5.3 -10.35 -5.55 -9.7 -5.2 Q-9.4 -4.9 -9.45 -4.45 -9.5 -4.05 -9.8 -3.8 L-12.95 -1.1 0.25 -1.1" fill="#31ab6c" fill-rule="evenodd" stroke="none"/>
    </g>
  </defs>
</svg>
