<?xml version="1.0" encoding="UTF-8" standalone="no"?>
<svg xmlns:xlink="http://www.w3.org/1999/xlink" height="1280.0px" width="575.95px" xmlns="http://www.w3.org/2000/svg">
  <g transform="matrix(1.0, 0.0, 0.0, 1.0, 287.95, 640.0)">
    <use height="1280.0" transform="matrix(1.0, 0.0, 0.0, 1.0, -287.95, -640.0)" width="575.95" xlink:href="#shape0"/>
  </g>
  <defs>
    <g id="shape0" transform="matrix(1.0, 0.0, 0.0, 1.0, 287.95, 640.0)">
      <path d="M-284.05 -640.0 L284.15 -640.0 Q288.0 -640.0 288.0 -631.4 L288.0 631.4 Q288.0 640.0 284.15 640.0 L-284.05 640.0 Q-287.95 640.0 -287.95 631.4 L-287.95 -631.4 Q-287.95 -640.0 -284.05 -640.0 M-230.0 -266.7 Q-245.0 -266.7 -245.0 -251.7 L-245.0 278.75 Q-245.0 293.75 -230.0 293.75 L233.25 293.75 Q248.25 293.75 248.25 278.75 L248.25 -251.7 Q248.25 -266.7 233.25 -266.7 L-230.0 -266.7" fill="#000000" fill-opacity="0.24705882" fill-rule="evenodd" stroke="none"/>
      <path d="M-230.0 -266.7 L233.25 -266.7 Q248.25 -266.7 248.25 -251.7 L248.25 278.75 Q248.25 293.75 233.25 293.75 L-230.0 293.75 Q-245.0 293.75 -245.0 278.75 L-245.0 -251.7 Q-245.0 -266.7 -230.0 -266.7 Z" fill="none" stroke="#349b47" stroke-linecap="round" stroke-linejoin="round" stroke-width="3.0"/>
    </g>
  </defs>
</svg>
