<?xml version="1.0" encoding="UTF-8" standalone="no"?>
<svg xmlns:xlink="http://www.w3.org/1999/xlink" height="1026.05px" width="1026.05px" xmlns="http://www.w3.org/2000/svg">
  <g transform="matrix(1.0, 0.0, 0.0, 1.0, 513.0, 513.0)">
    <use height="1026.05" transform="matrix(1.0, 0.0, 0.0, 1.0, -513.0, -513.0)" width="1026.05" xlink:href="#shape0"/>
  </g>
  <defs>
    <g id="shape0" transform="matrix(1.0, 0.0, 0.0, 1.0, 513.0, 513.0)">
      <path d="M-513.0 -513.0 L513.05 -513.0 513.05 513.05 -513.0 513.05 -513.0 -513.0" fill="#ffffff" fill-opacity="0.0" fill-rule="evenodd" stroke="none"/>
      <path d="M2.95 -43.15 Q1.7 -43.15 0.85 -44.0 L-0.05 -44.85 -0.1 -44.9 Q-19.95 -63.6 -47.95 -63.6 -76.0 -63.6 -95.85 -44.9 -115.6 -26.35 -115.6 -0.1 -115.6 26.15 -95.85 44.8 -76.0 63.45 -47.95 63.45 -19.95 63.45 -0.1 44.8 L-0.05 44.75 2.2 42.55 3.2 41.85 4.35 41.6 69.3 41.6 69.3 -43.15 2.95 -43.15 M280.65 -95.95 Q320.4 -135.7 376.55 -135.7 432.75 -135.7 472.5 -95.95 512.2 -56.25 512.2 -0.05 512.2 56.1 472.5 95.85 432.75 135.6 376.55 135.6 320.4 135.6 280.65 95.85 L276.4 91.45 276.4 126.65 Q276.4 127.9 275.55 128.8 274.65 129.65 273.4 129.65 L210.3 129.65 Q209.05 129.65 208.2 128.8 207.3 127.9 207.3 126.65 L207.3 35.5 Q207.2 31.0 203.6 30.1 L142.1 30.1 Q138.5 31.0 138.4 35.5 L138.4 126.65 Q138.4 127.9 137.55 128.8 136.65 129.65 135.4 129.65 L72.3 129.65 Q71.05 129.65 70.2 128.8 69.3 127.9 69.3 126.65 L69.3 78.6 Q62.35 87.55 53.6 95.85 11.5 135.5 -47.95 135.5 -107.45 135.5 -149.55 95.85 -180.75 66.45 -188.85 28.1 L-262.15 28.1 Q-265.75 29.0 -265.85 33.5 L-265.85 65.1 Q-264.95 68.65 -260.55 68.8 L-260.45 68.8 -180.1 68.8 Q-178.85 68.8 -177.95 69.7 -177.1 70.55 -177.1 71.8 L-177.1 126.65 Q-177.1 127.9 -177.95 128.8 -178.85 129.65 -180.1 129.65 L-333.05 129.65 Q-334.3 129.65 -335.15 128.8 -336.05 127.9 -336.05 126.65 L-336.05 -64.75 Q-336.15 -69.25 -339.75 -70.15 L-378.85 -70.15 Q-382.45 -69.25 -382.6 -64.85 L-382.6 -64.75 -382.6 126.65 Q-382.6 127.9 -383.45 128.8 -384.35 129.65 -385.6 129.65 L-448.7 129.65 Q-449.95 129.65 -450.8 128.8 -451.7 127.9 -451.7 126.65 L-451.7 -64.75 -451.7 -64.85 Q-451.85 -69.25 -455.4 -70.15 L-509.15 -70.15 Q-510.4 -70.15 -511.25 -71.0 -512.15 -71.9 -512.15 -73.15 L-512.15 -126.95 Q-512.15 -128.2 -511.25 -129.05 -510.4 -129.95 -509.15 -129.95 L-179.6 -129.95 Q-178.35 -129.95 -177.45 -129.05 -176.6 -128.2 -176.6 -126.95 L-176.6 -73.15 Q-176.6 -71.9 -177.45 -71.0 -178.35 -70.15 -179.6 -70.15 L-262.1 -70.15 Q-265.75 -69.25 -265.85 -64.75 L-265.85 -33.4 -187.7 -33.4 Q-178.65 -68.6 -149.55 -96.0 -107.45 -135.7 -47.95 -135.7 11.5 -135.7 53.6 -96.0 62.35 -87.8 69.3 -78.8 L69.3 -126.95 Q69.3 -128.2 70.2 -129.05 71.05 -129.95 72.3 -129.95 L135.4 -129.95 Q136.65 -129.95 137.55 -129.05 138.4 -128.2 138.4 -126.95 L138.4 -37.2 Q138.5 -32.75 142.1 -31.85 L203.6 -31.85 Q207.2 -32.75 207.3 -37.2 L207.3 -126.95 Q207.3 -128.2 208.2 -129.05 209.05 -129.95 210.3 -129.95 L273.4 -129.95 Q274.65 -129.95 275.55 -129.05 276.4 -128.2 276.4 -126.95 L276.4 -91.55 280.65 -95.95 M433.9 5.7 L433.9 5.6 Q434.05 0.3 439.3 0.1 L439.4 0.1 470.8 0.1 Q472.0 0.1 472.9 -0.75 473.8 -1.6 473.8 -2.85 473.8 -4.05 473.0 -4.95 L382.45 -100.95 Q381.85 -101.55 381.05 -101.8 380.25 -102.05 379.45 -101.8 378.65 -101.55 378.1 -100.95 L287.55 -4.95 Q286.7 -4.05 286.7 -2.85 286.7 -1.6 287.6 -0.75 288.5 0.1 289.7 0.1 L321.1 0.1 Q326.45 0.25 326.6 5.7 L326.6 66.9 Q326.6 68.15 327.5 69.05 328.35 69.9 329.6 69.9 L430.9 69.9 Q432.15 69.9 433.05 69.05 433.9 68.15 433.9 66.9 L433.9 5.7" fill="#0092dd" fill-rule="evenodd" stroke="none"/>
    </g>
  </defs>
</svg>
